<svg width="24" height="24" viewBox="0 0 24 24" fill="none" xmlns="http://www.w3.org/2000/svg">
<g clip-path="url(#clip0_3035_2540)">
<path fill-rule="evenodd" clip-rule="evenodd" d="M16.0599 10.9399C16.3408 11.2212 16.4986 11.6024 16.4986 11.9999C16.4986 12.3974 16.3408 12.7787 16.0599 13.0599L10.4039 18.7179C10.1225 18.9992 9.74089 19.1571 9.34304 19.157C8.94518 19.1569 8.56365 18.9988 8.28239 18.7174C8.00113 18.436 7.84317 18.0544 7.84326 17.6566C7.84336 17.2587 8.00149 16.8772 8.28289 16.5959L12.8789 11.9999L8.28289 7.40391C8.00952 7.12114 7.85814 6.7423 7.86137 6.34901C7.8646 5.95571 8.02218 5.57941 8.30016 5.30117C8.57815 5.02292 8.95429 4.86499 9.34759 4.86139C9.74088 4.85779 10.1199 5.0088 10.4029 5.28191L16.0609 10.9389L16.0599 10.9399Z" fill="black"/>
</g>
<defs>
<clipPath id="clip0_3035_2540">
<rect width="24" height="24" fill="white"/>
</clipPath>
</defs>
</svg>
